<svg width="208" height="21" viewBox="0 0 208 21" fill="none" xmlns="http://www.w3.org/2000/svg">
<g clip-path="url(#clip0_2685_38270)">
<path d="M29 0.222656H3C1.34315 0.222656 0 1.4437 0 2.94993V17.4954C0 19.0016 1.34315 20.2227 3 20.2227H29C30.6569 20.2227 32 19.0016 32 17.4954V2.94993C32 1.4437 30.6569 0.222656 29 0.222656Z" fill="#F8F8F8"/>
<path d="M14.2114 14.1075H12.209L13.4614 6.36328H15.4637L14.2114 14.1075Z" fill="black"/>
<path d="M21.4695 6.55236C21.0746 6.39566 20.4481 6.22266 19.6735 6.22266C17.6961 6.22266 16.3036 7.27713 16.2951 8.78472C16.2787 9.89701 17.2921 10.5148 18.05 10.8857C18.8247 11.2647 19.0881 11.512 19.0881 11.8498C19.0802 12.3686 18.4621 12.6078 17.8855 12.6078C17.0861 12.6078 16.6577 12.4845 16.0068 12.1958L15.7431 12.0721L15.4629 13.8105C15.9325 14.0245 16.7978 14.2143 17.6961 14.2227C19.7972 14.2227 21.165 13.1845 21.1812 11.5779C21.1892 10.6964 20.6541 10.0209 19.5004 9.46887C18.8001 9.11453 18.3712 8.8756 18.3712 8.51305C18.3794 8.18346 18.7339 7.84587 19.5245 7.84587C20.1755 7.82934 20.6538 7.98581 21.0161 8.14239L21.1972 8.22463L21.4695 6.55236V6.55236Z" fill="black"/>
<path d="M24.1313 11.364C24.2962 10.9191 24.9307 9.19723 24.9307 9.19723C24.9224 9.21376 25.0953 8.74412 25.1942 8.45581L25.3341 9.1231C25.3341 9.1231 25.7133 10.9768 25.7956 11.364C25.4827 11.364 24.5268 11.364 24.1313 11.364ZM26.603 6.36328H25.0541C24.5765 6.36328 24.2136 6.50322 24.0075 7.00582L21.0332 14.1074H23.1343C23.1343 14.1074 23.4802 13.1516 23.5545 12.9457C23.785 12.9457 25.8289 12.9457 26.1255 12.9457C26.1829 13.2176 26.3644 14.1074 26.3644 14.1074H28.2184L26.603 6.36328V6.36328Z" fill="black"/>
<path d="M10.5375 6.36328L8.57651 11.6441L8.36221 10.5731C7.99966 9.33728 6.86263 7.9946 5.59375 7.32698L7.38997 14.0993H9.50747L12.6549 6.36328H10.5375V6.36328Z" fill="black"/>
<path d="M6.75464 6.36328H3.53296L3.5 6.51976C6.01311 7.16241 7.6775 8.71149 8.36132 10.5734L7.66096 7.01425C7.54566 6.51965 7.19132 6.3796 6.75464 6.36328Z" fill="black"/>
</g>
<g clip-path="url(#clip1_2685_38270)">
<path d="M73 0.222656H47C45.3431 0.222656 44 1.4437 44 2.94993V17.4954C44 19.0016 45.3431 20.2227 47 20.2227H73C74.6569 20.2227 76 19.0016 76 17.4954V2.94993C76 1.4437 74.6569 0.222656 73 0.222656Z" fill="#F8F8F8"/>
<path fill-rule="evenodd" clip-rule="evenodd" d="M52.1014 17.5651V16.3376C52.1014 15.8755 51.8069 15.5646 51.3321 15.5604C51.0824 15.5561 50.8249 15.6338 50.6446 15.9083C50.5098 15.6914 50.2971 15.5604 49.9984 15.5604C49.7896 15.5604 49.5853 15.6217 49.4257 15.8506V15.6095H49V17.5651H49.4295V16.481C49.4295 16.1415 49.6178 15.9612 49.9085 15.9612C50.1908 15.9612 50.3337 16.1453 50.3337 16.4767V17.5651H50.7635V16.481C50.7635 16.1415 50.9598 15.9612 51.2422 15.9612C51.5325 15.9612 51.6716 16.1452 51.6716 16.4767V17.5651H52.1014ZM58.4593 15.6095H57.7639V15.0162H57.334V15.6095H56.9375V15.9982H57.334V16.8903C57.334 17.3441 57.51 17.6143 58.0131 17.6143C58.1975 17.6143 58.4101 17.5572 58.545 17.463L58.4223 17.0986C58.2955 17.1722 58.1563 17.2092 58.0458 17.2092C57.8332 17.2092 57.7639 17.078 57.7639 16.8819V15.9982H58.4593V15.6095ZM62.088 15.5604C61.8427 15.5604 61.6829 15.6751 61.5729 15.8469V15.6095H61.1514V17.5651H61.5766V16.4688C61.5766 16.1453 61.7157 15.9654 61.9938 15.9654C62.0801 15.9654 62.1699 15.9776 62.2599 16.0146L62.391 15.6137C62.2969 15.5766 62.1742 15.5604 62.088 15.5604ZM56.6016 15.765C56.397 15.6301 56.1151 15.5604 55.8042 15.5604C55.3087 15.5604 54.9898 15.7978 54.9898 16.1865C54.9898 16.5053 55.2272 16.702 55.6646 16.7633L55.8654 16.792C56.0986 16.8247 56.2087 16.886 56.2087 16.9965C56.2087 17.1478 56.0532 17.234 55.7629 17.234C55.4684 17.234 55.2558 17.1399 55.1125 17.0294L54.9121 17.3604C55.1453 17.5323 55.4399 17.6143 55.7587 17.6143C56.3235 17.6143 56.6507 17.3483 56.6507 16.976C56.6507 16.6322 56.3932 16.4524 55.9676 16.391L55.7671 16.3621C55.5831 16.3376 55.4356 16.3012 55.4356 16.1701C55.4356 16.0267 55.5747 15.941 55.8079 15.941C56.0575 15.941 56.2991 16.0352 56.4176 16.1087L56.6016 15.765ZM68.0001 15.5604C67.7547 15.5604 67.595 15.6751 67.4844 15.8469V15.6095H67.0629V17.5651H67.4887V16.4688C67.4887 16.1453 67.6278 15.9654 67.9059 15.9654C67.9921 15.9654 68.082 15.9776 68.1719 16.0146L68.3031 15.6137C68.2088 15.5766 68.0862 15.5604 68.0001 15.5604ZM62.5179 16.5873C62.5179 17.1805 62.9308 17.6143 63.5612 17.6143C63.8558 17.6143 64.0521 17.5486 64.2645 17.3811L64.0604 17.0373C63.9007 17.152 63.7331 17.2134 63.5486 17.2134C63.209 17.2092 62.9595 16.9637 62.9595 16.5873C62.9595 16.2108 63.209 15.9654 63.5486 15.9612C63.7331 15.9612 63.9007 16.0226 64.0604 16.1373L64.2645 15.7936C64.0521 15.626 63.8558 15.5604 63.5612 15.5604C62.9308 15.5604 62.5179 15.994 62.5179 16.5873ZM66.5025 16.5873V15.6095H66.0773V15.8469C65.9419 15.6708 65.7378 15.5604 65.4595 15.5604C64.9113 15.5604 64.4813 15.9903 64.4813 16.5873C64.4813 17.1849 64.9113 17.6143 65.4595 17.6143C65.7378 17.6143 65.9419 17.5037 66.0773 17.3277V17.5651H66.5025V16.5873ZM64.9192 16.5873C64.9192 16.2436 65.1445 15.9612 65.5126 15.9612C65.8642 15.9612 66.1016 16.2315 66.1016 16.5873C66.1016 16.9431 65.8642 17.2134 65.5126 17.2134C65.1445 17.2134 64.9192 16.9311 64.9192 16.5873ZM59.7851 15.5604C59.2117 15.5604 58.811 15.9776 58.811 16.5873C58.811 17.2092 59.2282 17.6143 59.8135 17.6143C60.1081 17.6143 60.3779 17.5407 60.6153 17.3403L60.4069 17.0251C60.243 17.1557 60.0341 17.2298 59.8379 17.2298C59.564 17.2298 59.3144 17.1028 59.2531 16.7507H60.7051C60.7094 16.6979 60.7136 16.6444 60.7136 16.5873C60.7094 15.9776 60.3329 15.5604 59.7851 15.5604ZM59.7766 15.941C60.0506 15.941 60.2266 16.1129 60.2715 16.4155H59.2568C59.3022 16.133 59.4736 15.941 59.7766 15.941ZM70.4511 16.5873V14.8242H70.0254V15.8469C69.8905 15.6708 69.6859 15.5604 69.4076 15.5604C68.8592 15.5604 68.4294 15.9903 68.4294 16.5873C68.4294 17.1849 68.8592 17.6143 69.4076 17.6143C69.6859 17.6143 69.8905 17.5037 70.0254 17.3277V17.5651H70.4511V16.5873ZM68.8673 16.5873C68.8673 16.2436 69.0926 15.9612 69.4606 15.9612C69.8127 15.9612 70.0497 16.2315 70.0497 16.5873C70.0497 16.9431 69.8127 17.2134 69.4606 17.2134C69.0926 17.2134 68.8673 16.9311 68.8673 16.5873ZM54.4986 16.5873V15.6095H54.0734V15.8469C53.9385 15.6708 53.7339 15.5604 53.4558 15.5604C52.9074 15.5604 52.4775 15.9903 52.4775 16.5873C52.4775 17.1849 52.9074 17.6143 53.4558 17.6143C53.7339 17.6143 53.9385 17.5037 54.0734 17.3277V17.5651H54.4986V16.5873ZM52.9153 16.5873C52.9153 16.2436 53.1406 15.9612 53.5087 15.9612C53.8603 15.9612 54.0977 16.2315 54.0977 16.5873C54.0977 16.9431 53.8603 17.2134 53.5087 17.2134C53.1406 17.2134 52.9153 16.9311 52.9153 16.5873Z" fill="black"/>
<path d="M57 12.8242C59.7614 12.8242 62 10.5856 62 7.82422C62 5.06279 59.7614 2.82422 57 2.82422C54.2386 2.82422 52 5.06279 52 7.82422C52 10.5856 54.2386 12.8242 57 12.8242Z" fill="black"/>
<path d="M63 12.8242C65.7614 12.8242 68 10.5856 68 7.82422C68 5.06279 65.7614 2.82422 63 2.82422C60.2386 2.82422 58 5.06279 58 7.82422C58 10.5856 60.2386 12.8242 63 12.8242Z" fill="#A0A1AA"/>
<path d="M58 7.82812C58 9.4489 58.7815 10.8931 60 11.8281C61.2184 10.8931 62 9.4489 62 7.82812C62 6.20734 61.2185 4.76315 60 3.82812C58.7816 4.76323 58 6.20738 58 7.82812Z" fill="#5B5C64"/>
</g>
<g clip-path="url(#clip2_2685_38270)">
<path d="M117 0.222656H91C89.3431 0.222656 88 1.4437 88 2.94993V17.4954C88 19.0016 89.3431 20.2227 91 20.2227H117C118.657 20.2227 120 19.0016 120 17.4954V2.94993C120 1.4437 118.657 0.222656 117 0.222656Z" fill="#F8F8F8"/>
<path d="M103.5 13.7227C103.258 13.7227 103.056 13.5506 103.01 13.3216L102.947 13.4467C102.862 13.6156 102.689 13.7227 102.5 13.7227H101.5C101.311 13.7227 101.138 13.6156 101.053 13.4467L100.99 13.3216C100.944 13.5507 100.742 13.7227 100.5 13.7227H96.5002C96.2242 13.7227 96.0002 13.4986 96.0002 13.2226V12.7226H95.8082L95.4472 13.4466C95.3623 13.6156 95.1893 13.7227 95.0003 13.7227H92.5003C92.3273 13.7227 92.1663 13.6326 92.0743 13.4856C91.9834 13.3386 91.9753 13.1536 92.0533 12.9996L95.0533 6.99964C95.1383 6.82967 95.3103 6.72266 95.5003 6.72266H100.479C100.655 6.72266 100.817 6.81467 100.908 6.96566L101.979 8.75163L103.05 6.96566C103.14 6.81566 103.303 6.72266 103.479 6.72266H110C110.133 6.72266 110.26 6.77567 110.354 6.86867L111.5 8.01467L112.646 6.86867C112.74 6.77567 112.867 6.72266 113 6.72266H115.5C115.694 6.72266 115.87 6.83464 115.953 7.01065C116.035 7.18564 116.009 7.39362 115.884 7.54264L113.651 10.2226L115.884 12.9027C116.009 13.0516 116.035 13.2597 115.953 13.4347C115.87 13.6107 115.694 13.7227 115.5 13.7227H113C112.867 13.7227 112.74 13.6696 112.646 13.5766L111.5 12.4297L110.354 13.5757C110.26 13.6696 110.133 13.7227 110 13.7227H103.5ZM105 7.72066L103.762 7.72156L102.408 9.97853C102.226 10.2795 101.73 10.2795 101.551 9.97853L100.196 7.72254H99.0002V11.2225C99.0002 11.4985 98.7762 11.7226 98.5002 11.7226C98.2242 11.7226 98.0002 11.4985 98.0002 11.2225V7.72254H95.8082L93.3083 12.7225H94.6913L95.0523 11.9986C95.1383 11.8296 95.3103 11.7226 95.5003 11.7226L96.3274 11.7226C96.2144 11.7195 96.1098 11.63 96.0495 11.4856C95.9889 11.3386 95.9836 11.1536 96.0355 10.9996L96.3688 9.99943C96.4381 9.79137 96.5901 9.68238 96.7441 9.73638C96.894 9.78837 97 9.99043 97 10.2224V11.2226C97 11.4986 96.8507 11.7227 96.6667 11.7227L96.5114 11.7227C96.7822 11.7286 97.0002 11.9503 97.0002 12.2226V12.7226H100V11.2226C100 10.9906 100.159 10.7886 100.385 10.7356C100.615 10.6826 100.844 10.7916 100.948 10.9986L101.809 12.7226H102.192L103.053 10.9986C103.157 10.7906 103.386 10.6826 103.616 10.7356C103.841 10.7886 104 10.9906 104 11.2226V12.7226L105 12.7217V7.72066ZM109.792 7.72156L106 7.72066V12.7217L109.793 12.7226L111.147 11.3686C111.342 11.1736 111.659 11.1736 111.854 11.3686L113.207 12.7226H114.433L112.617 10.5426C112.462 10.3566 112.462 10.0876 112.617 9.90156L114.433 7.72156H113.207L111.853 9.07554C111.658 9.27054 111.341 9.27054 111.146 9.07554L109.792 7.72156ZM108.6 8.72266C108.74 8.72266 108.863 8.81251 108.935 8.94851L109.854 9.86864C110.049 10.0636 110.049 10.3806 109.854 10.5757L108.935 11.4968C108.863 11.6328 108.74 11.7227 108.6 11.7227H107.4C107.179 11.7227 107 11.4986 107 11.2227C107 10.9467 107.179 10.7227 107.4 10.7227H108V9.72266H107.4C107.204 9.72266 107.04 9.54566 107.006 9.31249L107 9.22266C107 8.94666 107.179 8.72266 107.4 8.72266H108.6Z" fill="black"/>
</g>
<g clip-path="url(#clip3_2685_38270)">
<path d="M161.72 0.222656L162.057 0.223303C162.149 0.22395 162.24 0.224941 162.332 0.227449C162.492 0.231776 162.679 0.240452 162.854 0.271756C163.005 0.299096 163.132 0.340673 163.254 0.402877C163.375 0.46417 163.485 0.544493 163.582 0.640852C163.678 0.737858 163.759 0.848554 163.821 0.970514C163.882 1.09175 163.924 1.21846 163.951 1.37138C163.982 1.54412 163.991 1.73198 163.995 1.89313C163.997 1.98409 163.999 2.07505 163.999 2.16818C164 2.28079 164 2.39335 164 2.50619V17.9393C164 18.0522 164 18.1645 163.999 18.2796C163.999 18.3705 163.997 18.4615 163.995 18.5526C163.991 18.7135 163.982 18.9013 163.95 19.076C163.924 19.2269 163.882 19.3536 163.82 19.4754C163.759 19.5971 163.678 19.7077 163.582 19.8041C163.485 19.9011 163.375 19.9812 163.253 20.0431C163.132 20.105 163.005 20.1465 162.855 20.1736C162.677 20.2053 162.482 20.214 162.335 20.218C162.243 20.2201 162.151 20.2214 162.057 20.2218C161.945 20.2227 161.832 20.2227 161.72 20.2227H134.28C134.279 20.2227 134.277 20.2227 134.276 20.2227C134.165 20.2227 134.054 20.2227 133.941 20.2218C133.849 20.2214 133.757 20.2201 133.668 20.2181C133.518 20.214 133.323 20.2053 133.146 20.1738C132.995 20.1465 132.868 20.105 132.745 20.0423C132.624 19.9809 132.514 19.9009 132.417 19.8037C132.321 19.7075 132.241 19.5973 132.179 19.4754C132.118 19.3537 132.076 19.2266 132.049 19.074C132.017 18.8996 132.009 18.7125 132.005 18.5527C132.002 18.4612 132.001 18.3697 132 18.2788L132 18.0102L132 17.9393V2.50619L132 2.43529L132 2.16733C132.001 2.07582 132.002 1.98434 132.005 1.89291C132.009 1.73293 132.017 1.54584 132.049 1.36994C132.076 1.2187 132.118 1.09158 132.18 0.969261C132.241 0.848352 132.321 0.737979 132.418 0.641155C132.514 0.544655 132.625 0.464433 132.746 0.402553C132.867 0.340653 132.995 0.299096 133.146 0.271816C133.32 0.240432 133.508 0.231776 133.668 0.227429C133.759 0.224941 133.851 0.22395 133.942 0.223324L134.28 0.222656H161.72" fill="#F8F8F8"/>
<path d="M140.738 6.94991C141.012 6.61533 141.198 6.1661 141.149 5.70703C140.748 5.7265 140.259 5.96536 139.975 6.3002C139.721 6.58694 139.496 7.05498 139.554 7.4948C140.005 7.53293 140.454 7.27509 140.738 6.94991Z" fill="black"/>
<path d="M141.144 7.58067C140.49 7.54265 139.934 7.94296 139.622 7.94296C139.31 7.94296 138.831 7.59983 138.314 7.60908C137.641 7.61873 137.016 7.99029 136.675 8.58125C135.972 9.76345 136.489 11.5171 137.173 12.4799C137.504 12.9562 137.904 13.4807 138.431 13.4619C138.929 13.4428 139.124 13.1472 139.729 13.1472C140.334 13.1472 140.51 13.4619 141.037 13.4524C141.583 13.4428 141.925 12.9758 142.257 12.499C142.637 11.956 142.793 11.4316 142.803 11.4029C142.793 11.3933 141.749 11.0023 141.739 9.82997C141.73 8.84832 142.559 8.3814 142.598 8.35244C142.13 7.6761 141.398 7.59983 141.144 7.58067Z" fill="black"/>
<path d="M146.838 6.25C148.259 6.25 149.249 7.20637 149.249 8.59877C149.249 9.99614 148.239 10.9575 146.802 10.9575H145.229V13.4004H144.092V6.25H146.838V6.25ZM145.229 10.0259H146.533C147.523 10.0259 148.086 9.50563 148.086 8.60374C148.086 7.70195 147.523 7.18658 146.538 7.18658H145.229V10.0259V10.0259Z" fill="black"/>
<path d="M149.545 11.9192C149.545 11.0074 150.261 10.4475 151.53 10.3781L152.991 10.2939V9.89256C152.991 9.31277 152.59 8.96591 151.92 8.96591C151.286 8.96591 150.89 9.26317 150.794 9.72902H149.758C149.819 8.78747 150.641 8.09375 151.961 8.09375C153.255 8.09375 154.083 8.76271 154.083 9.80825V13.4008H153.032V12.5435H153.007C152.697 13.1233 152.022 13.49 151.321 13.49C150.276 13.49 149.545 12.8557 149.545 11.9192ZM152.991 11.4485V11.0372L151.677 11.1165C151.022 11.1611 150.651 11.4435 150.651 11.8895C150.651 12.3453 151.037 12.6427 151.626 12.6427C152.392 12.6427 152.991 12.1273 152.991 11.4485Z" fill="black"/>
<path d="M155.075 15.3181V14.4509C155.156 14.4707 155.339 14.4707 155.43 14.4707C155.937 14.4707 156.212 14.2626 156.379 13.7275C156.379 13.7175 156.476 13.4103 156.476 13.4054L154.547 8.1875H155.734L157.085 12.4292H157.105L158.455 8.1875H159.612L157.612 13.6729C157.156 14.9366 156.628 15.3429 155.521 15.3429C155.43 15.3429 155.156 15.3329 155.075 15.3181Z" fill="black"/>
</g>
<g clip-path="url(#clip4_2685_38270)">
<path opacity="0.9" d="M205 0.222656H179C177.343 0.222656 176 1.4437 176 2.94993V17.4954C176 19.0016 177.343 20.2227 179 20.2227H205C206.657 20.2227 208 19.0016 208 17.4954V2.94993C208 1.4437 206.657 0.222656 205 0.222656Z" fill="#F8F8F8"/>
<path d="M183.138 7.43359H181.223C181.092 7.43359 180.981 7.52879 180.96 7.65815L180.186 12.5685C180.17 12.6654 180.245 12.7528 180.344 12.7528H181.258C181.389 12.7528 181.5 12.6576 181.521 12.5279L181.73 11.2035C181.75 11.0739 181.861 10.9787 181.992 10.9787H182.598C183.86 10.9787 184.588 10.3683 184.778 9.15867C184.864 8.62947 184.782 8.21367 184.534 7.92247C184.262 7.60271 183.779 7.43359 183.138 7.43359ZM183.359 9.22699C183.254 9.91411 182.729 9.91411 182.221 9.91411H181.933L182.135 8.63087C182.147 8.55331 182.214 8.49619 182.293 8.49619H182.425C182.771 8.49619 183.097 8.49619 183.266 8.69331C183.366 8.81091 183.397 8.98563 183.359 9.22699Z" fill="black"/>
<path d="M188.861 9.20343H187.944C187.866 9.20343 187.798 9.26055 187.786 9.33811L187.745 9.59459L187.681 9.50163C187.483 9.21351 187.04 9.11719 186.598 9.11719C185.585 9.11719 184.719 9.88467 184.551 10.9613C184.463 11.4983 184.588 12.0118 184.892 12.3699C185.172 12.6992 185.572 12.8364 186.047 12.8364C186.864 12.8364 187.317 12.3114 187.317 12.3114L187.276 12.5662C187.26 12.6637 187.335 12.751 187.433 12.751H188.259C188.391 12.751 188.501 12.6558 188.522 12.5262L189.018 9.38767C189.033 9.29107 188.959 9.20343 188.861 9.20343ZM187.582 10.9881C187.494 11.512 187.078 11.8637 186.548 11.8637C186.282 11.8637 186.069 11.7783 185.932 11.6165C185.797 11.4557 185.745 11.227 185.788 10.9722C185.871 10.4528 186.294 10.0896 186.816 10.0896C187.076 10.0896 187.288 10.1761 187.427 10.3394C187.567 10.5043 187.622 10.7345 187.582 10.9881Z" fill="black"/>
<path d="M193.745 9.20703H192.824C192.736 9.20703 192.653 9.25071 192.603 9.32379L191.332 11.1959L190.794 9.39687C190.76 9.28431 190.656 9.20703 190.538 9.20703H189.633C189.523 9.20703 189.446 9.31455 189.481 9.41815L190.496 12.3968L189.542 13.7439C189.467 13.85 189.543 13.9959 189.672 13.9959H190.593C190.68 13.9959 190.762 13.9533 190.811 13.8816L193.876 9.45763C193.949 9.35179 193.874 9.20703 193.745 9.20703Z" fill="black"/>
<path d="M196.798 7.43359H194.883C194.752 7.43359 194.641 7.52879 194.62 7.65815L193.846 12.5685C193.83 12.6654 193.905 12.7528 194.003 12.7528H194.986C195.077 12.7528 195.155 12.6861 195.17 12.5954L195.389 11.2035C195.41 11.0739 195.521 10.9787 195.652 10.9787H196.258C197.52 10.9787 198.247 10.3683 198.438 9.15867C198.524 8.62947 198.441 8.21367 198.193 7.92247C197.921 7.60271 197.439 7.43359 196.798 7.43359ZM197.019 9.22699C196.915 9.91411 196.39 9.91411 195.882 9.91411H195.593L195.796 8.63087C195.808 8.55331 195.875 8.49619 195.953 8.49619H196.086C196.431 8.49619 196.758 8.49619 196.926 8.69331C197.027 8.81091 197.057 8.98563 197.019 9.22699Z" fill="black"/>
<path d="M202.52 9.20343H201.603C201.524 9.20343 201.458 9.26055 201.446 9.33811L201.405 9.59459L201.341 9.50163C201.142 9.21351 200.7 9.11719 200.258 9.11719C199.245 9.11719 198.38 9.88467 198.211 10.9613C198.124 11.4983 198.248 12.0118 198.552 12.3699C198.832 12.6992 199.232 12.8364 199.707 12.8364C200.524 12.8364 200.977 12.3114 200.977 12.3114L200.936 12.5662C200.92 12.6637 200.995 12.751 201.094 12.751H201.919C202.05 12.751 202.161 12.6558 202.182 12.5262L202.678 9.38767C202.693 9.29107 202.618 9.20343 202.52 9.20343ZM201.241 10.9881C201.153 11.512 200.737 11.8637 200.207 11.8637C199.941 11.8637 199.728 11.7783 199.591 11.6165C199.456 11.4557 199.405 11.227 199.447 10.9722C199.53 10.4528 199.953 10.0896 200.475 10.0896C200.735 10.0896 200.947 10.1761 201.086 10.3394C201.227 10.5043 201.282 10.7345 201.241 10.9881Z" fill="black"/>
<path d="M203.602 7.56855L202.816 12.5688C202.801 12.6657 202.876 12.753 202.974 12.753H203.764C203.895 12.753 204.007 12.6578 204.027 12.5282L204.802 7.61811C204.817 7.52123 204.742 7.43359 204.645 7.43359H203.76C203.682 7.43387 203.614 7.49099 203.602 7.56855Z" fill="black"/>
</g>
<defs>
<clipPath id="clip0_2685_38270">
<rect y="0.222656" width="32" height="20" fill="white"/>
</clipPath>
<clipPath id="clip1_2685_38270">
<rect x="44" y="0.222656" width="32" height="20" fill="white"/>
</clipPath>
<clipPath id="clip2_2685_38270">
<rect x="88" y="0.222656" width="32" height="20" fill="white"/>
</clipPath>
<clipPath id="clip3_2685_38270">
<rect x="132" y="0.222656" width="32" height="20" fill="white"/>
</clipPath>
<clipPath id="clip4_2685_38270">
<rect x="176" y="0.222656" width="32" height="20" fill="white"/>
</clipPath>
</defs>
</svg>
